# xmcd
#
# Track frame offsets: 
#        150
#        19709
#        36759
#        54831
#        83362
#        103606
#        122004
#        142173
#        163280
#        188809
#        203330
#        224268
#        250966
#        270391
#        286186
#
# Disc length: 4197 seconds
#
# Revision: 3
# Processed by: cddbd v1.5.2PL0 Copyright (c) Steve Scherf et al.
# Submitted via: ExactAudioCopy v0.95a5
#
DISCID=c910630f
DTITLE=Mark Heard - Satellite Sky
DYEAR=1992
DGENRE=Folk/Rock
TTITLE0=Tip of My Tongue
TTITLE1=Satellite Sky
TTITLE2=Big Wheels Roll
TTITLE3=Orphans of God
TTITLE4=Another Day in Limbo
TTITLE5=Language of Love
TTITLE6=Freight Train to Nowhere
TTITLE7=Long Way Down
TTITLE8=A Broken Man
TTITLE9=Love Is So Blind
TTITLE10=Hammers and Nails
TTITLE11=We Know Too Much
TTITLE12=Lost On Purpose
TTITLE13=Nothing but the Wind
TTITLE14=Treasure of the Broken Land
EXTD=
EXTT0=
EXTT1=
EXTT2=
EXTT3=
EXTT4=
EXTT5=
EXTT6=
EXTT7=
EXTT8=
EXTT9=
EXTT10=
EXTT11=
EXTT12=
EXTT13=
EXTT14=
PLAYORDER=
